<svg width="15" height="14" viewBox="0 0 15 14" fill="none" xmlns="http://www.w3.org/2000/svg">
<path d="M14.8073 7.09774L8.05725 0.217752C7.773 -0.0725839 7.227 -0.0725839 6.94275 0.217752L0.192702 7.09774C-0.00604974 7.29932 -0.0555501 7.58966 0.0652006 7.83803C0.185201 8.08639 0.453703 8.24601 0.749955 8.24601H2.24997V13.062C2.24997 13.4418 2.58522 13.75 2.99997 13.75H5.24998C5.66474 13.75 5.99999 13.4418 5.99999 13.062V10.31H9.00001V13.062C9.00001 13.4418 9.33526 13.75 9.75002 13.75H12C12.4148 13.75 12.75 13.4418 12.75 13.062V8.24601H14.25C14.5463 8.24601 14.8148 8.08639 14.9348 7.83803C15.0555 7.58966 15.006 7.30001 14.8073 7.09774Z" fill="black" fill-opacity="0.85"/>
</svg>
