<svg width="31" height="31" viewBox="0 0 31 31" fill="none" xmlns="http://www.w3.org/2000/svg">
<path d="M21.75 26.125H9.25C5.5 26.125 3 24.25 3 19.875V11.125C3 6.75 5.5 4.875 9.25 4.875H21.75C25.5 4.875 28 6.75 28 11.125V19.875C28 24.25 25.5 26.125 21.75 26.125Z" stroke="black" stroke-opacity="0.7" stroke-width="1.5" stroke-miterlimit="10" stroke-linecap="round" stroke-linejoin="round"/>
<path d="M7.375 12.375V18.625M23.625 12.375V18.625M15.5 19.25C16.4946 19.25 17.4484 18.8549 18.1517 18.1517C18.8549 17.4484 19.25 16.4946 19.25 15.5C19.25 14.5054 18.8549 13.5516 18.1517 12.8483C17.4484 12.1451 16.4946 11.75 15.5 11.75C14.5054 11.75 13.5516 12.1451 12.8483 12.8483C12.1451 13.5516 11.75 14.5054 11.75 15.5C11.75 16.4946 12.1451 17.4484 12.8483 18.1517C13.5516 18.8549 14.5054 19.25 15.5 19.25V19.25Z" stroke="black" stroke-opacity="0.7" stroke-width="1.5" stroke-miterlimit="10" stroke-linecap="round" stroke-linejoin="round"/>
</svg>
