<svg width="30" height="30" viewBox="0 0 30 30" fill="none" xmlns="http://www.w3.org/2000/svg">
<path d="M29.8789 8.84794C29.8765 8.74066 29.8621 8.63399 29.8358 8.52995C29.8254 8.49281 29.8046 8.45714 29.7912 8.42C29.76 8.3353 29.7318 8.25209 29.6872 8.17482C29.6634 8.1347 29.6307 8.10201 29.6025 8.06337C29.5549 7.99651 29.5089 7.92815 29.4509 7.8702C29.4168 7.83751 29.3722 7.81077 29.335 7.77956C29.2771 7.73201 29.2236 7.68001 29.1567 7.63989C29.1508 7.63543 29.1433 7.63543 29.1359 7.63097L29.124 7.62205L15.7819 0.207289C15.5614 0.0850365 15.3135 0.0207685 15.0614 0.0205086C14.8093 0.0202487 14.5613 0.0840055 14.3406 0.205803L0.936028 7.62057C0.93157 7.62503 0.927112 7.63097 0.919682 7.63543L0.904823 7.64137C0.852816 7.67109 0.814182 7.71418 0.765146 7.74984C0.711653 7.78996 0.655188 7.82563 0.607638 7.87169C0.56306 7.91775 0.528884 7.97125 0.49025 8.02325C0.45013 8.07526 0.405552 8.12133 0.372862 8.17779C0.334228 8.24168 0.313425 8.3145 0.285192 8.38433C0.264389 8.43337 0.237643 8.47943 0.22427 8.53293C0.198607 8.63507 0.184158 8.7397 0.181178 8.84497C0.179692 8.87023 0.170776 8.89252 0.170776 8.91927V20.8096C0.170776 21.349 0.463504 21.8468 0.936028 22.1083L14.2767 29.5186L14.2781 29.5201L14.2811 29.5216L14.3108 29.538C14.3747 29.5736 14.4446 29.5929 14.5114 29.6182C14.559 29.6375 14.6051 29.6628 14.6556 29.6762C14.9022 29.7398 15.1609 29.7398 15.4075 29.6762C15.4565 29.6628 15.5026 29.6375 15.5516 29.6182C15.6185 29.5929 15.6883 29.5751 15.7522 29.538L15.7819 29.5216L15.7849 29.5201L15.7864 29.5186L29.127 22.1083C29.5965 21.8468 29.8893 21.349 29.8893 20.8096V8.91927C29.8893 8.89401 29.8804 8.8732 29.8789 8.84794ZM14.9884 14.6757L4.71474 8.92967L8.81886 6.65918L18.9737 12.4617L14.9884 14.6757ZM15.0597 3.20588L25.3438 8.92224L22.0094 10.7752L11.8605 4.97562L15.0597 3.20588ZM16.516 25.7147L16.5189 17.2761L20.9737 14.7827V19.3237L23.9456 17.8378V13.12L26.9174 11.4572V19.9344L16.516 25.7147Z" fill="#0C0C0C" fill-opacity="0.9"/>
</svg>
