<svg width="27" height="27" viewBox="0 0 27 27" fill="none" xmlns="http://www.w3.org/2000/svg">
<path d="M3.81104 26.1885H22.9148C23.7593 26.1885 24.5691 25.853 25.1662 25.2559C25.7633 24.6588 26.0988 23.849 26.0988 23.0045V3.90076C26.0988 3.05632 25.7633 2.24647 25.1662 1.64936C24.5691 1.05225 23.7593 0.716797 22.9148 0.716797H3.81104C2.9666 0.716797 2.15674 1.05225 1.55964 1.64936C0.962527 2.24647 0.627075 3.05632 0.627075 3.90076V23.0045C0.627075 23.849 0.962527 24.6588 1.55964 25.2559C2.15674 25.853 2.9666 26.1885 3.81104 26.1885ZM6.995 11.8607H11.7709V7.08472H14.9549V11.8607H19.7309V15.0446H14.9549V19.8206H11.7709V15.0446H6.995V11.8607Z" fill="#0C0C0C" fill-opacity="0.9"/>
</svg>
