<svg width="27" height="27" viewBox="0 0 27 27" fill="none" xmlns="http://www.w3.org/2000/svg">
<path d="M3.54859 26.1917H23.3609C24.1116 26.1917 24.8315 25.8936 25.3623 25.3628C25.8931 24.832 26.1913 24.1121 26.1913 23.3614V3.54908C26.1913 2.79843 25.8931 2.07853 25.3623 1.54774C24.8315 1.01694 24.1116 0.71875 23.3609 0.71875H3.54859C2.79794 0.71875 2.07804 1.01694 1.54725 1.54774C1.01646 2.07853 0.718262 2.79843 0.718262 3.54908V23.3614C0.718262 24.1121 1.01646 24.832 1.54725 25.3628C2.07804 25.8936 2.79794 26.1917 3.54859 26.1917ZM13.4548 6.37942L20.5306 13.4552H14.8699V20.5311H12.0396V13.4552H6.37893L13.4548 6.37942Z" fill="#0C0C0C" fill-opacity="0.9"/>
</svg>
