<svg width="33" height="31" viewBox="0 0 33 31" fill="none" xmlns="http://www.w3.org/2000/svg">
<path d="M14.628 21.5396V24.5845C14.628 27.1645 12.2281 29.2495 9.27306 29.2495C6.31807 29.2495 3.90308 27.1645 3.90308 24.5845V21.5396C3.90308 24.1195 6.30307 25.9495 9.27306 25.9495C12.2281 25.9495 14.628 24.1045 14.628 21.5396Z" stroke="black" stroke-opacity="0.7" stroke-width="2" stroke-linecap="round" stroke-linejoin="round"/>
<path d="M14.625 17.4146C14.625 18.1646 14.415 18.8546 14.055 19.4546C13.17 20.9096 11.355 21.8246 9.255 21.8246C7.155 21.8246 5.34001 20.8946 4.45501 19.4546C4.09501 18.8546 3.88501 18.1646 3.88501 17.4146C3.88501 16.1246 4.48501 14.9696 5.44501 14.1296C6.42 13.2746 7.755 12.7646 9.24 12.7646C10.725 12.7646 12.06 13.2896 13.035 14.1296C14.025 14.9546 14.625 16.1246 14.625 17.4146V17.4146Z" stroke="black" stroke-opacity="0.7" stroke-width="2" stroke-linecap="round" stroke-linejoin="round"/>
<path d="M14.628 17.4153V21.5403C14.628 24.1203 12.2281 25.9503 9.27306 25.9503C6.31807 25.9503 3.90308 24.1053 3.90308 21.5403V17.4153C3.90308 14.8353 6.30307 12.7503 9.27306 12.7503C10.7581 12.7503 12.0931 13.2753 13.0681 14.1153C14.028 14.9553 14.628 16.1253 14.628 17.4153V17.4153ZM31.5 12.7053V15.7953C31.5 16.6203 30.84 17.2953 30 17.3253H27.06C25.44 17.3253 23.955 16.1403 23.82 14.5203C23.73 13.5753 24.09 12.6903 24.72 12.0753C25.275 11.5053 26.04 11.1753 26.88 11.1753H30C30.84 11.2053 31.5 11.8803 31.5 12.7053Z" stroke="black" stroke-opacity="0.7" stroke-width="2" stroke-linecap="round" stroke-linejoin="round"/>
<path d="M1.5 12V8.99998C1.5 4.91999 3.95999 2.07 7.78498 1.59C8.17498 1.53 8.57998 1.5 8.99998 1.5H22.4999C22.8899 1.5 23.2649 1.515 23.6249 1.575C27.4949 2.025 29.9999 4.88999 29.9999 8.99998V11.175H26.8799C26.0399 11.175 25.2749 11.505 24.7199 12.075C24.0899 12.69 23.7299 13.575 23.8199 14.52C23.9549 16.14 25.4399 17.325 27.0599 17.325H29.9999V19.5C29.9999 23.9999 26.9999 26.9999 22.4999 26.9999H18.75" stroke="black" stroke-opacity="0.7" stroke-width="2" stroke-linecap="round" stroke-linejoin="round"/>
</svg>
