<svg width="60" height="55" viewBox="0 0 60 55" fill="none" xmlns="http://www.w3.org/2000/svg">
<path d="M59.2292 28.391L32.229 0.871006C31.092 -0.290335 28.908 -0.290335 27.771 0.871006L0.770806 28.391C-0.024199 29.1973 -0.222201 30.3586 0.260803 31.3521C0.740806 32.3456 1.81481 32.984 2.99982 32.984H8.99986V52.248C8.99986 53.7671 10.3409 55 11.9999 55H20.9999C22.659 55 24 53.7671 24 52.248V41.24H36V52.248C36 53.7671 37.341 55 39.0001 55H48.0001C49.6591 55 51.0001 53.7671 51.0001 52.248V32.984H57.0002C58.1852 32.984 59.2592 32.3456 59.7392 31.3521C60.2222 30.3586 60.0242 29.2 59.2292 28.391Z" fill="black" fill-opacity="0.85"/>
</svg>
