<svg width="38" height="39" viewBox="0 0 38 39" fill="none" xmlns="http://www.w3.org/2000/svg">
<path d="M37.64 11.6952C37.619 10.1173 37.3236 8.55513 36.7671 7.07852C36.2845 5.833 35.5473 4.70185 34.6028 3.75733C33.6583 2.81281 32.5272 2.0757 31.2816 1.5931C29.824 1.04593 28.2841 0.75006 26.7275 0.718099C24.7233 0.628516 24.0879 0.603516 19.0004 0.603516C13.9129 0.603516 13.2608 0.603516 11.2712 0.718099C9.71531 0.750295 8.17612 1.04616 6.71914 1.5931C5.47343 2.07537 4.3421 2.81236 3.39754 3.75692C2.45298 4.70148 1.71599 5.8328 1.23372 7.07852C0.685455 8.53504 0.390231 10.0746 0.360807 11.6306C0.271224 13.6368 0.244141 14.2723 0.244141 19.3598C0.244141 24.4473 0.244141 25.0973 0.360807 27.0889C0.392057 28.6473 0.685807 30.1848 1.23372 31.6452C1.7168 32.8905 2.45434 34.0214 3.39922 34.9655C4.34409 35.9097 5.47552 36.6464 6.72122 37.1285C8.17421 37.6977 9.71367 38.0147 11.2733 38.066C13.2796 38.1556 13.915 38.1827 19.0025 38.1827C24.09 38.1827 24.7421 38.1827 26.7316 38.066C28.2882 38.0354 29.8282 37.7402 31.2858 37.1931C32.531 36.7099 33.6619 35.9726 34.6063 35.0282C35.5508 34.0837 36.2881 32.9529 36.7712 31.7077C37.3191 30.2493 37.6129 28.7118 37.6441 27.1514C37.7337 25.1473 37.7608 24.5118 37.7608 19.4223C37.7566 14.3348 37.7566 13.6889 37.64 11.6952ZM18.9879 28.9806C13.6671 28.9806 9.35664 24.6702 9.35664 19.3493C9.35664 14.0285 13.6671 9.7181 18.9879 9.7181C21.5423 9.7181 23.992 10.7328 25.7982 12.539C27.6044 14.3452 28.6191 16.795 28.6191 19.3493C28.6191 21.9037 27.6044 24.3535 25.7982 26.1597C23.992 27.9659 21.5423 28.9806 18.9879 28.9806ZM29.0025 11.6077C28.7075 11.608 28.4153 11.5501 28.1427 11.4373C27.8701 11.3245 27.6224 11.1591 27.4138 10.9505C27.2052 10.7419 27.0398 10.4942 26.927 10.2216C26.8143 9.94901 26.7564 9.65685 26.7566 9.36185C26.7566 9.06706 26.8147 8.77516 26.9275 8.5028C27.0403 8.23045 27.2057 7.98299 27.4141 7.77454C27.6226 7.56609 27.87 7.40074 28.1424 7.28793C28.4147 7.17512 28.7066 7.11706 29.0014 7.11706C29.2962 7.11706 29.5881 7.17512 29.8605 7.28793C30.1328 7.40074 30.3803 7.56609 30.5887 7.77454C30.7972 7.98299 30.9625 8.23045 31.0754 8.5028C31.1882 8.77516 31.2462 9.06706 31.2462 9.36185C31.2462 10.6035 30.2421 11.6077 29.0025 11.6077Z" fill="white" fill-opacity="0.85"/>
</svg>
