<svg width="40" height="45" viewBox="0 0 40 45" fill="none" xmlns="http://www.w3.org/2000/svg">
<path d="M20 44.4444C21.3762 44.4462 22.7188 44.0191 23.8411 43.2226C24.9634 42.4261 25.8096 41.2997 26.2622 40H13.7378C14.1904 41.2997 15.0366 42.4261 16.1589 43.2226C17.2812 44.0191 18.6238 44.4462 20 44.4444ZM35.5556 27.9689V17.7778C35.5556 10.6289 30.7 4.60667 24.1222 2.79556C23.4711 1.15556 21.88 0 20 0C18.12 0 16.5289 1.15556 15.8778 2.79556C9.3 4.60889 4.44445 10.6289 4.44445 17.7778V27.9689L0.651113 31.7622C0.444352 31.9682 0.280379 32.2131 0.168634 32.4827C0.0568892 32.7524 -0.000420998 33.0415 2.32816e-06 33.3333V35.5556C2.32816e-06 36.1449 0.234129 36.7102 0.650876 37.1269C1.06762 37.5437 1.63285 37.7778 2.22222 37.7778H37.7778C38.3671 37.7778 38.9324 37.5437 39.3491 37.1269C39.7659 36.7102 40 36.1449 40 35.5556V33.3333C40.0004 33.0415 39.9431 32.7524 39.8314 32.4827C39.7196 32.2131 39.5557 31.9682 39.3489 31.7622L35.5556 27.9689Z" fill="#0C0C0C" fill-opacity="0.9"/>
</svg>
