<svg width="38" height="35" viewBox="0 0 38 35" fill="none" xmlns="http://www.w3.org/2000/svg">
<path d="M10.8336 34.0592C13.9142 34.1623 16.9842 33.6468 19.8622 32.5432C22.7402 31.4396 25.3678 29.7702 27.5896 27.6338C29.8115 25.4974 31.5825 22.9373 32.7981 20.1048C34.0137 17.2723 34.6492 14.2249 34.6669 11.1426C36.0787 9.39551 37.127 7.38388 37.7503 5.2259C37.7968 5.0554 37.793 4.87509 37.7395 4.70668C37.6859 4.53827 37.5848 4.38893 37.4483 4.27666C37.3118 4.16439 37.1457 4.09397 36.9702 4.07387C36.7946 4.05378 36.6169 4.08487 36.4586 4.1634C35.72 4.51893 34.8885 4.63377 34.0812 4.49175C33.2739 4.34972 32.5315 3.95799 31.9586 3.37173C31.2272 2.57086 30.3426 1.92492 29.357 1.47221C28.3715 1.01949 27.3051 0.769207 26.221 0.736181C25.1369 0.703154 24.0573 0.888058 23.046 1.27994C22.0347 1.67182 21.1124 2.2627 20.3336 3.01757C19.2673 4.05019 18.4864 5.34109 18.0665 6.76481C17.6467 8.18853 17.6024 9.69664 17.9378 11.1426C10.9586 11.5592 6.16694 8.24673 2.3336 3.70507C2.21844 3.57465 2.0678 3.4806 1.90007 3.43438C1.73234 3.38816 1.55478 3.39179 1.38907 3.44482C1.22337 3.49784 1.07669 3.59797 0.966949 3.73298C0.857209 3.86798 0.789156 4.03203 0.771103 4.20507C0.0408308 8.25595 0.567622 12.4333 2.28072 16.176C3.99383 19.9188 6.81119 23.0477 10.3544 25.1426C7.97868 27.8672 4.64237 29.5689 1.04194 29.8926C0.849045 29.9246 0.670981 30.0161 0.532668 30.1543C0.394355 30.2925 0.302713 30.4704 0.270569 30.6633C0.238425 30.8562 0.267387 31.0543 0.353402 31.2299C0.439416 31.4054 0.578179 31.5497 0.750269 31.6426C3.8826 33.2079 7.332 34.0346 10.8336 34.0592Z" fill="white" fill-opacity="0.85"/>
</svg>
